# xmcd CD database file
#
# Track frame offsets:
#	150
#	15886
#	26443
#	42385
#	58725
#	78215
#	97258
#	116057
#	132334
#	150473
#	164623
#	178841
#	195739
#	213478
#	231866
#
# Disc length: 3283 seconds
#
# Revision: 3
# Processed by: cddbd v1.5.2PL0 Copyright (c) Steve Scherf et al.
# Submitted via: CDex 1.97
#
DISCID=c90cd10f
DTITLE=DI.DI.Sound - Canzone Italiana CD07 - A Tribute To Pino Daniele
DYEAR=1900
DGENRE=Classical
TTITLE0=Io per lei
TTITLE1=Terra mia
TTITLE2=Quando
TTITLE3=Napule e
TTITLE4=Che Dio ti benedica
TTITLE5=Quanno chiove
TTITLE6=Che male c'e
TTITLE7=Continueremo a navigare
TTITLE8=Dubbi non ho
TTITLE9=Je so pazzo
TTITLE10=Se mi vuoi
TTITLE11=Na tazzulella e cafe
TTITLE12=Non ho paura del mostro
TTITLE13=O' scaraffone
TTITLE14=Se domani piovera
EXTD=
EXTT0=
EXTT1=
EXTT2=
EXTT3=
EXTT4=
EXTT5=
EXTT6=
EXTT7=
EXTT8=
EXTT9=
EXTT10=
EXTT11=
EXTT12=
EXTT13=
EXTT14=
PLAYORDER=
